<svg width="154" height="104" viewBox="0 0 154 104" fill="none" xmlns="http://www.w3.org/2000/svg">
<path d="M25.835 45.2402C24.885 45.2402 24.075 45.0802 23.405 44.7602C22.735 44.4402 22.19 44.0152 21.77 43.4852C21.36 42.9452 21.06 42.3502 20.87 41.7002C20.68 41.0502 20.585 40.4002 20.585 39.7502C20.585 39.1202 20.69 38.4852 20.9 37.8452C21.11 37.1952 21.43 36.6002 21.86 36.0602C22.3 35.5202 22.85 35.0852 23.51 34.7552C24.17 34.4252 24.945 34.2602 25.835 34.2602C26.745 34.2602 27.53 34.4252 28.19 34.7552C28.86 35.0852 29.405 35.5252 29.825 36.0752C30.255 36.6152 30.57 37.2052 30.77 37.8452C30.98 38.4852 31.085 39.1202 31.085 39.7502C31.085 40.3702 30.98 41.0002 30.77 41.6402C30.56 42.2802 30.235 42.8752 29.795 43.4252C29.365 43.9652 28.82 44.4052 28.16 44.7452C27.5 45.0752 26.725 45.2402 25.835 45.2402ZM25.955 44.3102C26.515 44.3102 26.985 44.1802 27.365 43.9202C27.755 43.6602 28.07 43.3202 28.31 42.9002C28.55 42.4802 28.725 42.0202 28.835 41.5202C28.955 41.0102 29.015 40.5102 29.015 40.0202C29.015 39.3502 28.945 38.7252 28.805 38.1452C28.665 37.5552 28.455 37.0402 28.175 36.6002C27.905 36.1602 27.56 35.8152 27.14 35.5652C26.72 35.3052 26.235 35.1802 25.685 35.1902C25.135 35.2002 24.665 35.3402 24.275 35.6102C23.895 35.8702 23.58 36.2152 23.33 36.6452C23.09 37.0652 22.915 37.5302 22.805 38.0402C22.695 38.5502 22.64 39.0502 22.64 39.5402C22.64 40.0402 22.7 40.5652 22.82 41.1152C22.94 41.6652 23.13 42.1852 23.39 42.6752C23.65 43.1652 23.99 43.5602 24.41 43.8602C24.84 44.1602 25.355 44.3102 25.955 44.3102ZM35.8459 45.2402C35.1759 45.2402 34.5559 45.0902 33.9859 44.7902C33.4259 44.4902 32.9759 44.0552 32.6359 43.4852C32.3059 42.9052 32.1409 42.2102 32.1409 41.4002C32.1409 40.8502 32.2359 40.3302 32.4259 39.8402C32.6159 39.3402 32.8809 38.9002 33.2209 38.5202C33.5709 38.1302 33.9859 37.8252 34.4659 37.6052C34.9459 37.3752 35.4759 37.2602 36.0559 37.2602C36.6659 37.2602 37.1809 37.3552 37.6009 37.5452C38.0209 37.7252 38.3409 37.9702 38.5609 38.2802C38.7809 38.5802 38.8909 38.9002 38.8909 39.2402C38.8909 39.5102 38.8109 39.7452 38.6509 39.9452C38.5009 40.1452 38.2809 40.2502 37.9909 40.2602C37.6509 40.2702 37.4109 40.1752 37.2709 39.9752C37.1409 39.7652 37.0759 39.5702 37.0759 39.3902C37.0759 39.2902 37.0909 39.1852 37.1209 39.0752C37.1509 38.9552 37.2009 38.8452 37.2709 38.7452C37.2009 38.5652 37.0859 38.4352 36.9259 38.3552C36.7659 38.2652 36.6009 38.2052 36.4309 38.1752C36.2609 38.1452 36.1259 38.1352 36.0259 38.1452C35.4759 38.1652 35.0209 38.4152 34.6609 38.8952C34.3009 39.3752 34.1209 40.0752 34.1209 40.9952C34.1209 41.5452 34.1959 42.0552 34.3459 42.5252C34.5059 42.9852 34.7459 43.3602 35.0659 43.6502C35.3859 43.9302 35.7959 44.0752 36.2959 44.0852C36.7359 44.0952 37.1609 43.9902 37.5709 43.7702C37.9809 43.5402 38.3159 43.2452 38.5759 42.8852L39.1759 43.4402C38.8459 43.9102 38.4909 44.2752 38.1109 44.5352C37.7309 44.7952 37.3459 44.9752 36.9559 45.0752C36.5759 45.1852 36.2059 45.2402 35.8459 45.2402ZM44.7024 44.2052C44.9924 44.2052 45.1974 44.1452 45.3174 44.0252C45.4374 43.8952 45.5124 43.7152 45.5424 43.4852C45.5724 43.2552 45.5874 42.9952 45.5874 42.7052V40.5752C45.5774 39.8552 45.4624 39.3202 45.2424 38.9702C45.0224 38.6202 44.6774 38.4452 44.2074 38.4452C43.9174 38.4452 43.6274 38.5102 43.3374 38.6402C43.0574 38.7702 42.8274 38.9302 42.6474 39.1202V42.8552C42.6474 43.0152 42.6424 43.2102 42.6324 43.4402C42.6224 43.6602 42.6024 43.8752 42.5724 44.0852C42.7424 44.0652 42.9174 44.0552 43.0974 44.0552C43.2774 44.0452 43.4274 44.0402 43.5474 44.0402V45.0002H39.9024V44.2052C40.1924 44.2052 40.3974 44.1452 40.5174 44.0252C40.6474 43.8952 40.7224 43.7152 40.7424 43.4852C40.7724 43.2552 40.7874 42.9952 40.7874 42.7052V36.2252C40.7874 36.0552 40.7924 35.8702 40.8024 35.6702C40.8124 35.4602 40.8274 35.2452 40.8474 35.0252C40.6774 35.0352 40.4924 35.0452 40.2924 35.0552C40.0924 35.0652 39.9274 35.0752 39.7974 35.0852V34.1102C40.2574 34.1102 40.6324 34.0902 40.9224 34.0502C41.2124 34.0002 41.4374 33.9402 41.5974 33.8702C41.7674 33.8002 41.8874 33.7352 41.9574 33.6752H42.6474V38.1452C42.8474 37.9752 43.0774 37.8252 43.3374 37.6952C43.6074 37.5652 43.8824 37.4602 44.1624 37.3802C44.4424 37.3002 44.6974 37.2602 44.9274 37.2602C45.8274 37.2602 46.4674 37.5252 46.8474 38.0552C47.2374 38.5852 47.4324 39.4302 47.4324 40.5902L47.4474 42.8552C47.4474 43.0152 47.4424 43.2102 47.4324 43.4402C47.4224 43.6602 47.4074 43.8752 47.3874 44.0852C47.5474 44.0652 47.7124 44.0552 47.8824 44.0552C48.0624 44.0452 48.2174 44.0402 48.3474 44.0402V45.0002H44.7024V44.2052ZM53.2667 45.0002V44.2052C53.5567 44.2052 53.7617 44.1452 53.8817 44.0252C54.0017 43.8952 54.0767 43.7152 54.1067 43.4852C54.1367 43.2552 54.1517 42.9952 54.1517 42.7052V39.8852C54.1517 39.7052 54.1567 39.5152 54.1667 39.3152C54.1767 39.1152 54.1917 38.9102 54.2117 38.7002C54.0417 38.7102 53.8567 38.7202 53.6567 38.7302C53.4567 38.7402 53.2917 38.7502 53.1617 38.7602V37.7852C53.6117 37.7852 53.9817 37.7652 54.2717 37.7252C54.5617 37.6752 54.7867 37.6152 54.9467 37.5452C55.1067 37.4752 55.2217 37.4102 55.2917 37.3502H55.9217C55.9417 37.4502 55.9517 37.5752 55.9517 37.7252C55.9617 37.8652 55.9717 37.9952 55.9817 38.1152C56.3117 37.8552 56.6717 37.6502 57.0617 37.5002C57.4517 37.3402 57.8317 37.2602 58.2017 37.2602C58.6717 37.2602 59.0617 37.3452 59.3717 37.5152C59.6917 37.6852 59.9417 37.9302 60.1217 38.2502C60.4717 37.9602 60.8667 37.7252 61.3067 37.5452C61.7467 37.3552 62.1717 37.2602 62.5817 37.2602C63.4117 37.2602 64.0317 37.5052 64.4417 37.9952C64.8617 38.4752 65.0667 39.2952 65.0567 40.4552V42.8552C65.0567 43.0152 65.0517 43.2102 65.0417 43.4402C65.0317 43.6602 65.0167 43.8752 64.9967 44.0852C65.1567 44.0652 65.3267 44.0552 65.5067 44.0552C65.6867 44.0452 65.8367 44.0402 65.9567 44.0402V45.0002H62.4017V44.2052C62.6617 44.2052 62.8467 44.1452 62.9567 44.0252C63.0667 43.8952 63.1317 43.7152 63.1517 43.4852C63.1817 43.2552 63.1967 42.9952 63.1967 42.7052V40.4702C63.1967 39.7502 63.0817 39.2352 62.8517 38.9252C62.6217 38.6152 62.2967 38.4602 61.8767 38.4602C61.5967 38.4502 61.3267 38.5052 61.0667 38.6252C60.8167 38.7352 60.5967 38.8702 60.4067 39.0302C60.4567 39.2202 60.4917 39.4252 60.5117 39.6452C60.5317 39.8652 60.5417 40.1002 60.5417 40.3502C60.5417 40.7702 60.5417 41.1902 60.5417 41.6102C60.5417 42.0202 60.5367 42.4352 60.5267 42.8552C60.5267 43.0152 60.5217 43.2102 60.5117 43.4402C60.5117 43.6602 60.4967 43.8752 60.4667 44.0852C60.6267 44.0652 60.7967 44.0552 60.9767 44.0552C61.1567 44.0452 61.3117 44.0402 61.4417 44.0402V45.0002H57.8417V44.2052C58.1117 44.2052 58.3017 44.1452 58.4117 44.0252C58.5317 43.8952 58.6067 43.7152 58.6367 43.4852C58.6667 43.2552 58.6817 42.9952 58.6817 42.7052V40.4402C58.6817 39.7202 58.5717 39.2102 58.3517 38.9102C58.1417 38.6002 57.8267 38.4402 57.4067 38.4302C57.1367 38.4302 56.8767 38.4902 56.6267 38.6102C56.3867 38.7302 56.1767 38.8752 55.9967 39.0452C55.9967 39.1752 55.9967 39.3052 55.9967 39.4352C55.9967 39.5552 55.9967 39.6802 55.9967 39.8102V42.8552C55.9967 43.0152 55.9917 43.2102 55.9817 43.4402C55.9817 43.6602 55.9667 43.8752 55.9367 44.0852C56.0967 44.0652 56.2567 44.0552 56.4167 44.0552C56.5867 44.0452 56.7317 44.0402 56.8517 44.0402V45.0002H53.2667ZM66.9337 44.2052C67.2237 44.2052 67.4287 44.1452 67.5487 44.0252C67.6687 43.8952 67.7437 43.7152 67.7737 43.4852C67.8037 43.2552 67.8187 42.9952 67.8187 42.7052V39.9002C67.8187 39.7302 67.8237 39.5452 67.8337 39.3452C67.8437 39.1352 67.8587 38.9202 67.8787 38.7002C67.7087 38.7102 67.5237 38.7202 67.3237 38.7302C67.1237 38.7402 66.9587 38.7502 66.8287 38.7602V37.7852C67.2787 37.7852 67.6487 37.7652 67.9387 37.7252C68.2387 37.6752 68.4687 37.6152 68.6287 37.5452C68.7987 37.4752 68.9187 37.4102 68.9887 37.3502H69.6637V42.8552C69.6637 43.0152 69.6587 43.2102 69.6487 43.4402C69.6487 43.6602 69.6337 43.8752 69.6037 44.0852C69.7637 44.0652 69.9337 44.0552 70.1137 44.0552C70.3037 44.0452 70.4587 44.0402 70.5787 44.0402V45.0002H66.9337V44.2052ZM68.6587 36.0602C68.3687 36.0602 68.1237 35.9552 67.9237 35.7452C67.7237 35.5252 67.6237 35.2602 67.6237 34.9502C67.6237 34.6402 67.7237 34.3752 67.9237 34.1552C68.1337 33.9352 68.3787 33.8252 68.6587 33.8252C68.9487 33.8252 69.1887 33.9352 69.3787 34.1552C69.5787 34.3752 69.6787 34.6402 69.6787 34.9502C69.6787 35.2602 69.5837 35.5252 69.3937 35.7452C69.2037 35.9552 68.9587 36.0602 68.6587 36.0602ZM71.6066 45.0002V44.2052C71.8966 44.2052 72.1016 44.1452 72.2216 44.0252C72.3416 43.8952 72.4166 43.7152 72.4466 43.4852C72.4766 43.2552 72.4916 42.9952 72.4916 42.7052V39.8852C72.4916 39.7052 72.4966 39.5152 72.5066 39.3152C72.5166 39.1152 72.5316 38.9102 72.5516 38.7002C72.3916 38.7102 72.2066 38.7202 71.9966 38.7302C71.7966 38.7402 71.6316 38.7502 71.5016 38.7602V37.7852C71.9516 37.7852 72.3216 37.7652 72.6116 37.7252C72.9016 37.6752 73.1266 37.6152 73.2866 37.5452C73.4466 37.4752 73.5616 37.4102 73.6316 37.3502H74.2616C74.2816 37.4602 74.2916 37.5502 74.2916 37.6202C74.2916 37.6902 74.2966 37.7652 74.3066 37.8452C74.3166 37.9152 74.3316 38.0202 74.3516 38.1602C74.5516 37.9902 74.7816 37.8402 75.0416 37.7102C75.3116 37.5702 75.5816 37.4602 75.8516 37.3802C76.1216 37.3002 76.3716 37.2602 76.6016 37.2602C77.5016 37.2602 78.1466 37.5252 78.5366 38.0552C78.9266 38.5852 79.1216 39.4302 79.1216 40.5902V42.8552C79.1216 43.0152 79.1166 43.2102 79.1066 43.4402C79.1066 43.6602 79.0916 43.8752 79.0616 44.0852C79.2316 44.0652 79.4066 44.0552 79.5866 44.0552C79.7666 44.0452 79.9166 44.0402 80.0366 44.0402V45.0002H76.3916V44.2052C76.6816 44.2052 76.8866 44.1452 77.0066 44.0252C77.1366 43.8952 77.2166 43.7152 77.2466 43.4852C77.2766 43.2552 77.2916 42.9952 77.2916 42.7052L77.2766 40.5752C77.2766 39.8552 77.1666 39.3202 76.9466 38.9702C76.7366 38.6102 76.3866 38.4302 75.8966 38.4302C75.6066 38.4402 75.3216 38.5102 75.0416 38.6402C74.7616 38.7702 74.5266 38.9352 74.3366 39.1352C74.3466 39.2552 74.3516 39.3802 74.3516 39.5102C74.3516 39.6402 74.3516 39.7702 74.3516 39.9002L74.3366 42.8552C74.3366 43.0152 74.3316 43.2102 74.3216 43.4402C74.3216 43.6602 74.3066 43.8752 74.2766 44.0852C74.4366 44.0652 74.6066 44.0552 74.7866 44.0552C74.9766 44.0452 75.1316 44.0402 75.2516 44.0402V45.0002H71.6066ZM81.0255 45.0002V44.2052C81.3155 44.2052 81.5205 44.1452 81.6405 44.0252C81.7605 43.8952 81.8355 43.7152 81.8655 43.4852C81.8955 43.2552 81.9105 42.9952 81.9105 42.7052V39.8852C81.9105 39.7052 81.9155 39.5152 81.9255 39.3152C81.9355 39.1152 81.9505 38.9102 81.9705 38.7002C81.8105 38.7102 81.6255 38.7202 81.4155 38.7302C81.2155 38.7402 81.0505 38.7502 80.9205 38.7602V37.7852C81.3705 37.7852 81.7405 37.7652 82.0305 37.7252C82.3205 37.6752 82.5455 37.6152 82.7055 37.5452C82.8655 37.4752 82.9805 37.4102 83.0505 37.3502H83.6805C83.7005 37.4602 83.7105 37.5502 83.7105 37.6202C83.7105 37.6902 83.7155 37.7652 83.7255 37.8452C83.7355 37.9152 83.7505 38.0202 83.7705 38.1602C83.9705 37.9902 84.2005 37.8402 84.4605 37.7102C84.7305 37.5702 85.0005 37.4602 85.2705 37.3802C85.5405 37.3002 85.7905 37.2602 86.0205 37.2602C86.9205 37.2602 87.5655 37.5252 87.9555 38.0552C88.3455 38.5852 88.5405 39.4302 88.5405 40.5902V42.8552C88.5405 43.0152 88.5355 43.2102 88.5255 43.4402C88.5255 43.6602 88.5105 43.8752 88.4805 44.0852C88.6505 44.0652 88.8255 44.0552 89.0055 44.0552C89.1855 44.0452 89.3355 44.0402 89.4555 44.0402V45.0002H85.8105V44.2052C86.1005 44.2052 86.3055 44.1452 86.4255 44.0252C86.5555 43.8952 86.6355 43.7152 86.6655 43.4852C86.6955 43.2552 86.7105 42.9952 86.7105 42.7052L86.6955 40.5752C86.6955 39.8552 86.5855 39.3202 86.3655 38.9702C86.1555 38.6102 85.8055 38.4302 85.3155 38.4302C85.0255 38.4402 84.7405 38.5102 84.4605 38.6402C84.1805 38.7702 83.9455 38.9352 83.7555 39.1352C83.7655 39.2552 83.7705 39.3802 83.7705 39.5102C83.7705 39.6402 83.7705 39.7702 83.7705 39.9002L83.7555 42.8552C83.7555 43.0152 83.7505 43.2102 83.7405 43.4402C83.7405 43.6602 83.7255 43.8752 83.6955 44.0852C83.8555 44.0652 84.0255 44.0552 84.2055 44.0552C84.3955 44.0452 84.5505 44.0402 84.6705 44.0402V45.0002H81.0255ZM93.7745 45.2402C93.3145 45.2402 92.8845 45.1802 92.4845 45.0602C92.0845 44.9402 91.7645 44.7952 91.5245 44.6252L91.5695 45.1052H90.5945L90.5195 42.5252H91.3295C91.3595 42.8652 91.4795 43.1752 91.6895 43.4552C91.8995 43.7252 92.1695 43.9402 92.4995 44.1002C92.8395 44.2502 93.2145 44.3252 93.6245 44.3252C93.8245 44.3252 94.0145 44.2952 94.1945 44.2352C94.3845 44.1752 94.5395 44.0802 94.6595 43.9502C94.7895 43.8102 94.8545 43.6352 94.8545 43.4252C94.8545 43.2052 94.7795 43.0252 94.6295 42.8852C94.4895 42.7452 94.2895 42.6152 94.0295 42.4952C93.7695 42.3752 93.4645 42.2502 93.1145 42.1202C92.8045 42.0002 92.4945 41.8752 92.1845 41.7452C91.8745 41.6152 91.5895 41.4602 91.3295 41.2802C91.0695 41.0902 90.8595 40.8602 90.6995 40.5902C90.5395 40.3202 90.4595 39.9902 90.4595 39.6002C90.4595 39.3302 90.5095 39.0602 90.6095 38.7902C90.7095 38.5202 90.8695 38.2702 91.0895 38.0402C91.3095 37.8002 91.5895 37.6102 91.9295 37.4702C92.2795 37.3302 92.7045 37.2602 93.2045 37.2602C93.4745 37.2602 93.7795 37.3052 94.1195 37.3952C94.4595 37.4752 94.7595 37.6152 95.0195 37.8152L95.0045 37.3352H95.9795V39.9752H95.1695C95.1195 39.6252 95.0095 39.3152 94.8395 39.0452C94.6695 38.7652 94.4445 38.5452 94.1645 38.3852C93.8845 38.2252 93.5495 38.1452 93.1595 38.1452C92.8395 38.1452 92.5695 38.2252 92.3495 38.3852C92.1295 38.5352 92.0195 38.7602 92.0195 39.0602C92.0195 39.3102 92.1045 39.5152 92.2745 39.6752C92.4445 39.8352 92.6745 39.9702 92.9645 40.0802C93.2545 40.1902 93.5695 40.3102 93.9095 40.4402C94.3795 40.6002 94.8045 40.7902 95.1845 41.0102C95.5745 41.2302 95.8845 41.4952 96.1145 41.8052C96.3445 42.1152 96.4595 42.5002 96.4595 42.9602C96.4595 43.4802 96.3295 43.9102 96.0695 44.2502C95.8095 44.5802 95.4745 44.8302 95.0645 45.0002C94.6545 45.1602 94.2245 45.2402 93.7745 45.2402ZM107.158 45.1502C106.788 44.2602 106.413 43.3802 106.033 42.5102C105.663 41.6302 105.293 40.7452 104.923 39.8552C104.823 39.6252 104.708 39.3402 104.578 39.0002C104.448 38.6602 104.318 38.2852 104.188 37.8752C104.058 37.4652 103.933 37.0452 103.813 36.6152C103.833 37.0252 103.843 37.4152 103.843 37.7852C103.853 38.1452 103.853 38.4952 103.843 38.8352C103.843 39.1052 103.838 39.4002 103.828 39.7202C103.828 40.0402 103.823 40.3702 103.813 40.7102C103.803 41.0502 103.793 41.3952 103.783 41.7452C103.783 42.0852 103.783 42.4152 103.783 42.7352C103.773 42.9852 103.763 43.2302 103.753 43.4702C103.743 43.7102 103.728 43.9052 103.708 44.0552C103.888 44.0452 104.088 44.0352 104.308 44.0252C104.538 44.0152 104.718 44.0102 104.848 44.0102V45.0002H101.608V44.1752C101.868 44.1652 102.073 44.1252 102.223 44.0552C102.373 43.9752 102.483 43.8402 102.553 43.6502C102.623 43.4602 102.658 43.1902 102.658 42.8402L102.823 36.7352C102.833 36.4852 102.838 36.2452 102.838 36.0152C102.848 35.7852 102.858 35.5952 102.868 35.4452C102.708 35.4552 102.518 35.4652 102.298 35.4752C102.078 35.4752 101.898 35.4802 101.758 35.4902V34.5002H104.743L107.113 40.3502C107.213 40.6102 107.318 40.8902 107.428 41.1902C107.548 41.4902 107.663 41.7852 107.773 42.0752C107.883 42.3652 107.978 42.6202 108.058 42.8402H108.073C108.203 42.5202 108.328 42.1902 108.448 41.8502C108.568 41.5002 108.688 41.1752 108.808 40.8752C109.208 39.8152 109.613 38.7602 110.023 37.7102C110.443 36.6502 110.863 35.5802 111.283 34.5002H114.328V35.3252C114.098 35.3252 113.898 35.3602 113.728 35.4302C113.568 35.5002 113.448 35.6352 113.368 35.8352C113.288 36.0252 113.253 36.3252 113.263 36.7352L113.548 42.8402C113.568 43.0802 113.568 43.3102 113.548 43.5302C113.538 43.7502 113.528 43.9252 113.518 44.0552C113.688 44.0352 113.883 44.0252 114.103 44.0252C114.333 44.0152 114.513 44.0102 114.643 44.0102V45.0002H110.743V44.1752C110.993 44.1652 111.198 44.1202 111.358 44.0402C111.518 43.9602 111.633 43.8202 111.703 43.6202C111.773 43.4102 111.798 43.1052 111.778 42.7052L111.598 38.9402C111.598 38.8102 111.588 38.6202 111.568 38.3702C111.548 38.1202 111.533 37.8502 111.523 37.5602C111.513 37.2702 111.503 36.9952 111.493 36.7352C111.463 36.8052 111.428 36.8752 111.388 36.9452C111.358 37.0152 111.333 37.0852 111.313 37.1552L108.238 45.1502H107.158ZM115.772 44.2052C116.062 44.2052 116.267 44.1452 116.387 44.0252C116.507 43.8952 116.582 43.7152 116.612 43.4852C116.642 43.2552 116.657 42.9952 116.657 42.7052V39.9002C116.657 39.7302 116.662 39.5452 116.672 39.3452C116.682 39.1352 116.697 38.9202 116.717 38.7002C116.547 38.7102 116.362 38.7202 116.162 38.7302C115.962 38.7402 115.797 38.7502 115.667 38.7602V37.7852C116.117 37.7852 116.487 37.7652 116.777 37.7252C117.077 37.6752 117.307 37.6152 117.467 37.5452C117.637 37.4752 117.757 37.4102 117.827 37.3502H118.502V42.8552C118.502 43.0152 118.497 43.2102 118.487 43.4402C118.487 43.6602 118.472 43.8752 118.442 44.0852C118.602 44.0652 118.772 44.0552 118.952 44.0552C119.142 44.0452 119.297 44.0402 119.417 44.0402V45.0002H115.772V44.2052ZM117.497 36.0602C117.207 36.0602 116.962 35.9552 116.762 35.7452C116.562 35.5252 116.462 35.2602 116.462 34.9502C116.462 34.6402 116.562 34.3752 116.762 34.1552C116.972 33.9352 117.217 33.8252 117.497 33.8252C117.787 33.8252 118.027 33.9352 118.217 34.1552C118.417 34.3752 118.517 34.6402 118.517 34.9502C118.517 35.2602 118.422 35.5252 118.232 35.7452C118.042 35.9552 117.797 36.0602 117.497 36.0602ZM123.804 49.0652C122.924 49.0652 122.224 48.9702 121.704 48.7802C121.194 48.5902 120.824 48.3402 120.594 48.0302C120.374 47.7302 120.264 47.4152 120.264 47.0852C120.264 46.8352 120.319 46.6002 120.429 46.3802C120.539 46.1702 120.699 45.9702 120.909 45.7802C121.119 45.5902 121.374 45.4402 121.674 45.3302C121.294 45.2202 121.019 45.0552 120.849 44.8352C120.679 44.6052 120.594 44.3452 120.594 44.0552C120.594 43.7652 120.709 43.4602 120.939 43.1402C121.179 42.8202 121.554 42.5952 122.064 42.4652C121.634 42.2752 121.279 41.9952 120.999 41.6252C120.729 41.2552 120.589 40.8152 120.579 40.3052C120.569 39.7052 120.719 39.1752 121.029 38.7152C121.349 38.2552 121.764 37.9002 122.274 37.6502C122.784 37.3902 123.314 37.2602 123.864 37.2602C124.144 37.2602 124.454 37.3002 124.794 37.3802C125.134 37.4602 125.434 37.5852 125.694 37.7552C125.794 37.4552 125.934 37.1802 126.114 36.9302C126.294 36.6702 126.504 36.4602 126.744 36.3002C126.994 36.1402 127.269 36.0602 127.569 36.0602C127.879 36.0602 128.114 36.1402 128.274 36.3002C128.434 36.4602 128.514 36.6752 128.514 36.9452C128.514 37.0552 128.489 37.1752 128.439 37.3052C128.389 37.4352 128.304 37.5452 128.184 37.6352C128.064 37.7252 127.899 37.7702 127.689 37.7702C127.529 37.7702 127.379 37.7152 127.239 37.6052C127.109 37.4952 127.029 37.3602 126.999 37.2002C126.829 37.2402 126.674 37.3652 126.534 37.5752C126.404 37.7852 126.324 37.9852 126.294 38.1752C126.564 38.4152 126.774 38.7002 126.924 39.0302C127.074 39.3502 127.149 39.6952 127.149 40.0652C127.149 40.6352 126.989 41.1452 126.669 41.5952C126.359 42.0352 125.949 42.3802 125.439 42.6302C124.939 42.8802 124.399 43.0052 123.819 43.0052C123.669 43.0052 123.519 43.0002 123.369 42.9902C123.219 42.9702 123.059 42.9602 122.889 42.9602C122.619 42.9602 122.394 43.0152 122.214 43.1252C122.044 43.2352 121.969 43.3802 121.989 43.5602C122.019 43.7702 122.199 43.9102 122.529 43.9802C122.859 44.0402 123.369 44.0902 124.059 44.1302C124.829 44.1702 125.499 44.2652 126.069 44.4152C126.639 44.5652 127.079 44.8002 127.389 45.1202C127.699 45.4502 127.854 45.9002 127.854 46.4702C127.854 46.8902 127.734 47.2602 127.494 47.5802C127.254 47.9002 126.934 48.1702 126.534 48.3902C126.144 48.6102 125.709 48.7752 125.229 48.8852C124.759 49.0052 124.284 49.0652 123.804 49.0652ZM124.089 48.1802C124.849 48.1802 125.429 48.0402 125.829 47.7602C126.229 47.4802 126.429 47.1752 126.429 46.8452C126.429 46.5852 126.334 46.3752 126.144 46.2152C125.954 46.0652 125.684 45.9502 125.334 45.8702C124.984 45.7902 124.549 45.7402 124.029 45.7202C123.799 45.7102 123.544 45.6952 123.264 45.6752C122.984 45.6652 122.729 45.6402 122.499 45.6002C122.309 45.7402 122.159 45.9152 122.049 46.1252C121.949 46.3352 121.899 46.5452 121.899 46.7552C121.879 47.1852 122.069 47.5302 122.469 47.7902C122.869 48.0502 123.409 48.1802 124.089 48.1802ZM123.879 42.1652C124.179 42.1652 124.429 42.0802 124.629 41.9102C124.839 41.7302 124.994 41.5052 125.094 41.2352C125.204 40.9552 125.259 40.6602 125.259 40.3502C125.259 39.9702 125.209 39.6102 125.109 39.2702C125.009 38.9202 124.854 38.6402 124.644 38.4302C124.434 38.2102 124.169 38.1002 123.849 38.1002C123.399 38.1002 123.049 38.2902 122.799 38.6702C122.559 39.0402 122.439 39.4802 122.439 39.9902C122.439 40.3802 122.494 40.7452 122.604 41.0852C122.724 41.4152 122.889 41.6802 123.099 41.8802C123.319 42.0702 123.579 42.1652 123.879 42.1652ZM129.904 47.7602L129.379 47.3852C129.489 47.2452 129.609 47.0452 129.739 46.7852C129.869 46.5252 129.979 46.2352 130.069 45.9152C130.159 45.6052 130.194 45.3052 130.174 45.0152C130.104 45.0352 130.044 45.0502 129.994 45.0602C129.944 45.0702 129.894 45.0752 129.844 45.0752C129.594 45.0752 129.374 45.0002 129.184 44.8502C129.004 44.6902 128.914 44.4602 128.914 44.1602C128.914 43.8702 129.004 43.6252 129.184 43.4252C129.374 43.2252 129.619 43.1252 129.919 43.1252C130.339 43.1152 130.654 43.2602 130.864 43.5602C131.084 43.8502 131.194 44.2052 131.194 44.6252C131.194 44.9252 131.144 45.2552 131.044 45.6152C130.944 45.9752 130.799 46.3402 130.609 46.7102C130.419 47.0802 130.184 47.4302 129.904 47.7602ZM139.814 45.2402C139.354 45.2402 138.924 45.1802 138.524 45.0602C138.124 44.9402 137.804 44.7952 137.564 44.6252L137.609 45.1052H136.634L136.559 42.5252H137.369C137.399 42.8652 137.519 43.1752 137.729 43.4552C137.939 43.7252 138.209 43.9402 138.539 44.1002C138.879 44.2502 139.254 44.3252 139.664 44.3252C139.864 44.3252 140.054 44.2952 140.234 44.2352C140.424 44.1752 140.579 44.0802 140.699 43.9502C140.829 43.8102 140.894 43.6352 140.894 43.4252C140.894 43.2052 140.819 43.0252 140.669 42.8852C140.529 42.7452 140.329 42.6152 140.069 42.4952C139.809 42.3752 139.504 42.2502 139.154 42.1202C138.844 42.0002 138.534 41.8752 138.224 41.7452C137.914 41.6152 137.629 41.4602 137.369 41.2802C137.109 41.0902 136.899 40.8602 136.739 40.5902C136.579 40.3202 136.499 39.9902 136.499 39.6002C136.499 39.3302 136.549 39.0602 136.649 38.7902C136.749 38.5202 136.909 38.2702 137.129 38.0402C137.349 37.8002 137.629 37.6102 137.969 37.4702C138.319 37.3302 138.744 37.2602 139.244 37.2602C139.514 37.2602 139.819 37.3052 140.159 37.3952C140.499 37.4752 140.799 37.6152 141.059 37.8152L141.044 37.3352H142.019V39.9752H141.209C141.159 39.6252 141.049 39.3152 140.879 39.0452C140.709 38.7652 140.484 38.5452 140.204 38.3852C139.924 38.2252 139.589 38.1452 139.199 38.1452C138.879 38.1452 138.609 38.2252 138.389 38.3852C138.169 38.5352 138.059 38.7602 138.059 39.0602C138.059 39.3102 138.144 39.5152 138.314 39.6752C138.484 39.8352 138.714 39.9702 139.004 40.0802C139.294 40.1902 139.609 40.3102 139.949 40.4402C140.419 40.6002 140.844 40.7902 141.224 41.0102C141.614 41.2302 141.924 41.4952 142.154 41.8052C142.384 42.1152 142.499 42.5002 142.499 42.9602C142.499 43.4802 142.369 43.9102 142.109 44.2502C141.849 44.5802 141.514 44.8302 141.104 45.0002C140.694 45.1602 140.264 45.2402 139.814 45.2402ZM147.953 45.0002C147.923 44.8502 147.903 44.7252 147.893 44.6252C147.893 44.5152 147.888 44.3902 147.878 44.2502C147.538 44.5902 147.173 44.8402 146.783 45.0002C146.403 45.1602 146.008 45.2402 145.598 45.2402C144.918 45.2402 144.393 45.0552 144.023 44.6852C143.663 44.3152 143.483 43.8602 143.483 43.3202C143.483 42.8402 143.613 42.4352 143.873 42.1052C144.133 41.7652 144.473 41.4902 144.893 41.2802C145.313 41.0602 145.778 40.8952 146.288 40.7852C146.798 40.6652 147.303 40.6002 147.803 40.5902V39.7652C147.803 39.4752 147.768 39.2102 147.698 38.9702C147.638 38.7202 147.523 38.5252 147.353 38.3852C147.183 38.2352 146.933 38.1602 146.603 38.1602C146.383 38.1702 146.158 38.2202 145.928 38.3102C145.708 38.3902 145.533 38.5202 145.403 38.7002C145.483 38.7902 145.533 38.8902 145.553 39.0002C145.573 39.1002 145.583 39.1902 145.583 39.2702C145.583 39.4502 145.513 39.6402 145.373 39.8402C145.233 40.0302 145.008 40.1202 144.698 40.1102C144.428 40.1002 144.218 40.0052 144.068 39.8252C143.928 39.6452 143.858 39.4302 143.858 39.1802C143.858 38.8002 143.993 38.4702 144.263 38.1902C144.543 37.9002 144.918 37.6752 145.388 37.5152C145.858 37.3452 146.383 37.2602 146.963 37.2602C147.823 37.2602 148.483 37.4852 148.943 37.9352C149.403 38.3852 149.628 39.1052 149.618 40.0952C149.618 40.4452 149.618 40.7652 149.618 41.0552C149.618 41.3352 149.613 41.6202 149.603 41.9102C149.603 42.1902 149.603 42.5052 149.603 42.8552C149.603 43.0052 149.598 43.1952 149.588 43.4252C149.578 43.6452 149.563 43.8652 149.543 44.0852C149.723 44.0652 149.903 44.0552 150.083 44.0552C150.273 44.0452 150.428 44.0352 150.548 44.0252V45.0002H147.953ZM147.788 41.4752C147.488 41.4952 147.193 41.5452 146.903 41.6252C146.613 41.6952 146.353 41.7952 146.123 41.9252C145.893 42.0552 145.708 42.2202 145.568 42.4202C145.438 42.6102 145.378 42.8302 145.388 43.0802C145.398 43.3902 145.498 43.6202 145.688 43.7702C145.878 43.9102 146.098 43.9802 146.348 43.9802C146.638 43.9802 146.898 43.9202 147.128 43.8002C147.368 43.6802 147.588 43.5202 147.788 43.3202C147.788 43.2202 147.788 43.1152 147.788 43.0052C147.788 42.8952 147.788 42.7852 147.788 42.6752C147.788 42.5352 147.788 42.3602 147.788 42.1502C147.788 41.9402 147.788 41.7152 147.788 41.4752ZM146.798 36.3602C146.538 36.3602 146.278 36.3002 146.018 36.1802C145.768 36.0602 145.558 35.8852 145.388 35.6552C145.228 35.4152 145.138 35.1252 145.118 34.7852C145.108 34.4552 145.178 34.1652 145.328 33.9152C145.488 33.6552 145.698 33.4502 145.958 33.3002C146.218 33.1502 146.493 33.0752 146.783 33.0752C147.053 33.0752 147.313 33.1352 147.563 33.2552C147.813 33.3652 148.023 33.5352 148.193 33.7652C148.363 33.9852 148.453 34.2752 148.463 34.6352C148.473 34.9852 148.393 35.2902 148.223 35.5502C148.063 35.8002 147.853 36.0002 147.593 36.1502C147.343 36.2902 147.078 36.3602 146.798 36.3602ZM146.873 35.5952C147.013 35.5852 147.133 35.5152 147.233 35.3852C147.343 35.2452 147.398 35.0552 147.398 34.8152C147.398 34.4852 147.338 34.2402 147.218 34.0802C147.108 33.9102 146.958 33.8302 146.768 33.8402C146.618 33.8502 146.488 33.9202 146.378 34.0502C146.268 34.1702 146.213 34.3602 146.213 34.6202C146.213 34.9202 146.273 35.1602 146.393 35.3402C146.513 35.5102 146.673 35.5952 146.873 35.5952ZM23.96 64.2402C23.5 64.2402 23.07 64.1802 22.67 64.0602C22.27 63.9402 21.95 63.7952 21.71 63.6252L21.755 64.1052H20.78L20.705 61.5252H21.515C21.545 61.8652 21.665 62.1752 21.875 62.4552C22.085 62.7252 22.355 62.9402 22.685 63.1002C23.025 63.2502 23.4 63.3252 23.81 63.3252C24.01 63.3252 24.2 63.2952 24.38 63.2352C24.57 63.1752 24.725 63.0802 24.845 62.9502C24.975 62.8102 25.04 62.6352 25.04 62.4252C25.04 62.2052 24.965 62.0252 24.815 61.8852C24.675 61.7452 24.475 61.6152 24.215 61.4952C23.955 61.3752 23.65 61.2502 23.3 61.1202C22.99 61.0002 22.68 60.8752 22.37 60.7452C22.06 60.6152 21.775 60.4602 21.515 60.2802C21.255 60.0902 21.045 59.8602 20.885 59.5902C20.725 59.3202 20.645 58.9902 20.645 58.6002C20.645 58.3302 20.695 58.0602 20.795 57.7902C20.895 57.5202 21.055 57.2702 21.275 57.0402C21.495 56.8002 21.775 56.6102 22.115 56.4702C22.465 56.3302 22.89 56.2602 23.39 56.2602C23.66 56.2602 23.965 56.3052 24.305 56.3952C24.645 56.4752 24.945 56.6152 25.205 56.8152L25.19 56.3352H26.165V58.9752H25.355C25.305 58.6252 25.195 58.3152 25.025 58.0452C24.855 57.7652 24.63 57.5452 24.35 57.3852C24.07 57.2252 23.735 57.1452 23.345 57.1452C23.025 57.1452 22.755 57.2252 22.535 57.3852C22.315 57.5352 22.205 57.7602 22.205 58.0602C22.205 58.3102 22.29 58.5152 22.46 58.6752C22.63 58.8352 22.86 58.9702 23.15 59.0802C23.44 59.1902 23.755 59.3102 24.095 59.4402C24.565 59.6002 24.99 59.7902 25.37 60.0102C25.76 60.2302 26.07 60.4952 26.3 60.8052C26.53 61.1152 26.645 61.5002 26.645 61.9602C26.645 62.4802 26.515 62.9102 26.255 63.2502C25.995 63.5802 25.66 63.8302 25.25 64.0002C24.84 64.1602 24.41 64.2402 23.96 64.2402ZM27.5831 64.0002V63.2052C27.8731 63.2052 28.0781 63.1452 28.1981 63.0252C28.3281 62.8952 28.4081 62.7152 28.4381 62.4852C28.4681 62.2552 28.4831 61.9952 28.4831 61.7052V55.2252C28.4831 55.0552 28.4881 54.8702 28.4981 54.6702C28.5081 54.4602 28.5231 54.2452 28.5431 54.0252C28.3731 54.0352 28.1881 54.0452 27.9881 54.0552C27.7881 54.0652 27.6181 54.0752 27.4781 54.0852V53.1102C27.9381 53.1102 28.3131 53.0902 28.6031 53.0502C28.8931 53.0002 29.1181 52.9402 29.2781 52.8702C29.4481 52.8002 29.5681 52.7352 29.6381 52.6752H30.3281V59.6052H31.0031L32.3381 58.1352C32.4781 57.9852 32.5981 57.8552 32.6981 57.7452C32.8081 57.6252 32.9181 57.5252 33.0281 57.4452L32.1581 57.4602V56.5002H35.3081V57.2952C34.9681 57.3252 34.6581 57.4152 34.3781 57.5652C34.0981 57.7052 33.8531 57.8702 33.6431 58.0602C33.4331 58.2502 33.2481 58.4302 33.0881 58.6002L32.0681 59.7402C32.2281 59.8102 32.3781 59.9152 32.5181 60.0552C32.6681 60.1952 32.8381 60.3852 33.0281 60.6252L34.0481 61.9602C34.1081 62.0302 34.1881 62.1352 34.2881 62.2752C34.3981 62.4052 34.5181 62.5452 34.6481 62.6952C34.7881 62.8352 34.9381 62.9552 35.0981 63.0552C35.2581 63.1552 35.4181 63.2052 35.5781 63.2052V64.0002H33.9731C33.6631 64.0002 33.3831 63.8802 33.1331 63.6402C32.8931 63.3902 32.6231 63.0652 32.3231 62.6652C32.1231 62.3852 31.9231 62.1052 31.7231 61.8252C31.5231 61.5352 31.3381 61.2752 31.1681 61.0452C31.0081 60.8052 30.8731 60.6202 30.7631 60.4902L30.3281 60.5052V61.8552C30.3281 62.0152 30.3231 62.2102 30.3131 62.4402C30.3031 62.6602 30.2881 62.8752 30.2681 63.0852C30.4281 63.0652 30.5981 63.0552 30.7781 63.0552C30.9581 63.0452 31.1131 63.0402 31.2431 63.0402V64.0002H27.5831ZM40.6821 64.0002C40.6521 63.8502 40.6321 63.7252 40.6221 63.6252C40.6221 63.5152 40.6171 63.3902 40.6071 63.2502C40.2671 63.5902 39.9021 63.8402 39.5121 64.0002C39.1321 64.1602 38.7371 64.2402 38.3271 64.2402C37.6471 64.2402 37.1221 64.0552 36.7521 63.6852C36.3921 63.3152 36.2121 62.8602 36.2121 62.3202C36.2121 61.8402 36.3421 61.4352 36.6021 61.1052C36.8621 60.7652 37.2021 60.4902 37.6221 60.2802C38.0421 60.0602 38.5071 59.8952 39.0171 59.7852C39.5271 59.6652 40.0321 59.6002 40.5321 59.5902V58.7652C40.5321 58.4752 40.4971 58.2102 40.4271 57.9702C40.3671 57.7202 40.2521 57.5252 40.0821 57.3852C39.9121 57.2352 39.6621 57.1602 39.3321 57.1602C39.1121 57.1702 38.8871 57.2202 38.6571 57.3102C38.4371 57.3902 38.2621 57.5202 38.1321 57.7002C38.2121 57.7902 38.2621 57.8902 38.2821 58.0002C38.3021 58.1002 38.3121 58.1902 38.3121 58.2702C38.3121 58.4502 38.2421 58.6402 38.1021 58.8402C37.9621 59.0302 37.7371 59.1202 37.4271 59.1102C37.1571 59.1002 36.9471 59.0052 36.7971 58.8252C36.6571 58.6452 36.5871 58.4302 36.5871 58.1802C36.5871 57.8002 36.7221 57.4702 36.9921 57.1902C37.2721 56.9002 37.6471 56.6752 38.1171 56.5152C38.5871 56.3452 39.1121 56.2602 39.6921 56.2602C40.5521 56.2602 41.2121 56.4852 41.6721 56.9352C42.1321 57.3852 42.3571 58.1052 42.3471 59.0952C42.3471 59.4452 42.3471 59.7652 42.3471 60.0552C42.3471 60.3352 42.3421 60.6202 42.3321 60.9102C42.3321 61.1902 42.3321 61.5052 42.3321 61.8552C42.3321 62.0052 42.3271 62.1952 42.3171 62.4252C42.3071 62.6452 42.2921 62.8652 42.2721 63.0852C42.4521 63.0652 42.6321 63.0552 42.8121 63.0552C43.0021 63.0452 43.1571 63.0352 43.2771 63.0252V64.0002H40.6821ZM40.5171 60.4752C40.2171 60.4952 39.9221 60.5452 39.6321 60.6252C39.3421 60.6952 39.0821 60.7952 38.8521 60.9252C38.6221 61.0552 38.4371 61.2202 38.2971 61.4202C38.1671 61.6102 38.1071 61.8302 38.1171 62.0802C38.1271 62.3902 38.2271 62.6202 38.4171 62.7702C38.6071 62.9102 38.8271 62.9802 39.0771 62.9802C39.3671 62.9802 39.6271 62.9202 39.8571 62.8002C40.0971 62.6802 40.3171 62.5202 40.5171 62.3202C40.5171 62.2202 40.5171 62.1152 40.5171 62.0052C40.5171 61.8952 40.5171 61.7852 40.5171 61.6752C40.5171 61.5352 40.5171 61.3602 40.5171 61.1502C40.5171 60.9402 40.5171 60.7152 40.5171 60.4752ZM43.9893 63.2052C44.2793 63.2052 44.4843 63.1452 44.6043 63.0252C44.7343 62.8952 44.8093 62.7152 44.8293 62.4852C44.8593 62.2552 44.8743 61.9952 44.8743 61.7052V55.2252C44.8743 55.0552 44.8793 54.8702 44.8893 54.6702C44.8993 54.4602 44.9143 54.2452 44.9343 54.0252C44.7643 54.0352 44.5793 54.0452 44.3793 54.0552C44.1793 54.0652 44.0093 54.0752 43.8693 54.0852V53.1102C44.3293 53.1102 44.7043 53.0902 44.9943 53.0502C45.2943 53.0002 45.5243 52.9402 45.6843 52.8702C45.8543 52.8002 45.9743 52.7352 46.0443 52.6752H46.7193L46.7343 61.8552C46.7343 62.0152 46.7293 62.2102 46.7193 62.4402C46.7093 62.6602 46.6893 62.8752 46.6593 63.0852C46.8293 63.0652 47.0043 63.0552 47.1843 63.0552C47.3643 63.0452 47.5143 63.0402 47.6343 63.0402V64.0002H43.9893V63.2052ZM48.4718 63.2052C48.7618 63.2052 48.9668 63.1452 49.0868 63.0252C49.2168 62.8952 49.2918 62.7152 49.3118 62.4852C49.3418 62.2552 49.3568 61.9952 49.3568 61.7052V55.2252C49.3568 55.0552 49.3618 54.8702 49.3718 54.6702C49.3818 54.4602 49.3968 54.2452 49.4168 54.0252C49.2468 54.0352 49.0618 54.0452 48.8618 54.0552C48.6618 54.0652 48.4918 54.0752 48.3518 54.0852V53.1102C48.8118 53.1102 49.1868 53.0902 49.4768 53.0502C49.7768 53.0002 50.0068 52.9402 50.1668 52.8702C50.3368 52.8002 50.4568 52.7352 50.5268 52.6752H51.2018L51.2168 61.8552C51.2168 62.0152 51.2118 62.2102 51.2018 62.4402C51.1918 62.6602 51.1718 62.8752 51.1418 63.0852C51.3118 63.0652 51.4868 63.0552 51.6668 63.0552C51.8468 63.0452 51.9968 63.0402 52.1168 63.0402V64.0002H48.4718V63.2052ZM58.4396 64.2402C58.0796 64.2402 57.7496 64.1802 57.4496 64.0602C57.1596 63.9402 56.9246 63.7752 56.7446 63.5652C56.5646 63.3452 56.4746 63.0952 56.4746 62.8152C56.4746 62.5352 56.5496 62.2852 56.6996 62.0652C56.8496 61.8452 57.0746 61.7302 57.3746 61.7202C57.7146 61.7002 57.9546 61.7852 58.0946 61.9752C58.2346 62.1652 58.3096 62.3702 58.3196 62.5902C58.3296 62.6602 58.3246 62.7402 58.3046 62.8302C58.2846 62.9202 58.2546 63.0002 58.2146 63.0702C58.2646 63.1702 58.3446 63.2402 58.4546 63.2802C58.5746 63.3102 58.6596 63.3202 58.7096 63.3102C58.9496 63.3102 59.1296 63.2052 59.2496 62.9952C59.3796 62.7852 59.4446 62.4402 59.4446 61.9602V55.7802C59.4446 55.5302 59.4496 55.2852 59.4596 55.0452C59.4696 54.8052 59.4796 54.6052 59.4896 54.4452C59.2996 54.4552 59.0796 54.4652 58.8296 54.4752C58.5896 54.4752 58.3896 54.4802 58.2296 54.4902V53.5002H62.4296V54.3252C62.1696 54.3352 61.9596 54.3802 61.7996 54.4602C61.6396 54.5302 61.5196 54.6602 61.4396 54.8502C61.3696 55.0402 61.3346 55.3202 61.3346 55.6902V60.2352C61.3346 61.6652 61.0896 62.6902 60.5996 63.3102C60.1196 63.9302 59.3996 64.2402 58.4396 64.2402ZM67.4155 64.0002C67.3855 63.8502 67.3655 63.7252 67.3555 63.6252C67.3555 63.5152 67.3505 63.3902 67.3405 63.2502C67.0005 63.5902 66.6355 63.8402 66.2455 64.0002C65.8655 64.1602 65.4705 64.2402 65.0605 64.2402C64.3805 64.2402 63.8555 64.0552 63.4855 63.6852C63.1255 63.3152 62.9455 62.8602 62.9455 62.3202C62.9455 61.8402 63.0755 61.4352 63.3355 61.1052C63.5955 60.7652 63.9355 60.4902 64.3555 60.2802C64.7755 60.0602 65.2405 59.8952 65.7505 59.7852C66.2605 59.6652 66.7655 59.6002 67.2655 59.5902V58.7652C67.2655 58.4752 67.2305 58.2102 67.1605 57.9702C67.1005 57.7202 66.9855 57.5252 66.8155 57.3852C66.6455 57.2352 66.3955 57.1602 66.0655 57.1602C65.8455 57.1702 65.6205 57.2202 65.3905 57.3102C65.1705 57.3902 64.9955 57.5202 64.8655 57.7002C64.9455 57.7902 64.9955 57.8902 65.0155 58.0002C65.0355 58.1002 65.0455 58.1902 65.0455 58.2702C65.0455 58.4502 64.9755 58.6402 64.8355 58.8402C64.6955 59.0302 64.4705 59.1202 64.1605 59.1102C63.8905 59.1002 63.6805 59.0052 63.5305 58.8252C63.3905 58.6452 63.3205 58.4302 63.3205 58.1802C63.3205 57.8002 63.4555 57.4702 63.7255 57.1902C64.0055 56.9002 64.3805 56.6752 64.8505 56.5152C65.3205 56.3452 65.8455 56.2602 66.4255 56.2602C67.2855 56.2602 67.9455 56.4852 68.4055 56.9352C68.8655 57.3852 69.0905 58.1052 69.0805 59.0952C69.0805 59.4452 69.0805 59.7652 69.0805 60.0552C69.0805 60.3352 69.0755 60.6202 69.0655 60.9102C69.0655 61.1902 69.0655 61.5052 69.0655 61.8552C69.0655 62.0052 69.0605 62.1952 69.0505 62.4252C69.0405 62.6452 69.0255 62.8652 69.0055 63.0852C69.1855 63.0652 69.3655 63.0552 69.5455 63.0552C69.7355 63.0452 69.8905 63.0352 70.0105 63.0252V64.0002H67.4155ZM67.2505 60.4752C66.9505 60.4952 66.6555 60.5452 66.3655 60.6252C66.0755 60.6952 65.8155 60.7952 65.5855 60.9252C65.3555 61.0552 65.1705 61.2202 65.0305 61.4202C64.9005 61.6102 64.8405 61.8302 64.8505 62.0802C64.8605 62.3902 64.9605 62.6202 65.1505 62.7702C65.3405 62.9102 65.5605 62.9802 65.8105 62.9802C66.1005 62.9802 66.3605 62.9202 66.5905 62.8002C66.8305 62.6802 67.0505 62.5202 67.2505 62.3202C67.2505 62.2202 67.2505 62.1152 67.2505 62.0052C67.2505 61.8952 67.2505 61.7852 67.2505 61.6752C67.2505 61.5352 67.2505 61.3602 67.2505 61.1502C67.2505 60.9402 67.2505 60.7152 67.2505 60.4752ZM74.2927 68.0652C73.4127 68.0652 72.7127 67.9702 72.1927 67.7802C71.6827 67.5902 71.3127 67.3402 71.0827 67.0302C70.8627 66.7302 70.7527 66.4152 70.7527 66.0852C70.7527 65.8352 70.8077 65.6002 70.9177 65.3802C71.0277 65.1702 71.1877 64.9702 71.3977 64.7802C71.6077 64.5902 71.8627 64.4402 72.1627 64.3302C71.7827 64.2202 71.5077 64.0552 71.3377 63.8352C71.1677 63.6052 71.0827 63.3452 71.0827 63.0552C71.0827 62.7652 71.1977 62.4602 71.4277 62.1402C71.6677 61.8202 72.0427 61.5952 72.5527 61.4652C72.1227 61.2752 71.7677 60.9952 71.4877 60.6252C71.2177 60.2552 71.0777 59.8152 71.0677 59.3052C71.0577 58.7052 71.2077 58.1752 71.5177 57.7152C71.8377 57.2552 72.2527 56.9002 72.7627 56.6502C73.2727 56.3902 73.8027 56.2602 74.3527 56.2602C74.6327 56.2602 74.9427 56.3002 75.2827 56.3802C75.6227 56.4602 75.9227 56.5852 76.1827 56.7552C76.2827 56.4552 76.4227 56.1802 76.6027 55.9302C76.7827 55.6702 76.9927 55.4602 77.2327 55.3002C77.4827 55.1402 77.7577 55.0602 78.0577 55.0602C78.3677 55.0602 78.6027 55.1402 78.7627 55.3002C78.9227 55.4602 79.0027 55.6752 79.0027 55.9452C79.0027 56.0552 78.9777 56.1752 78.9277 56.3052C78.8777 56.4352 78.7927 56.5452 78.6727 56.6352C78.5527 56.7252 78.3877 56.7702 78.1777 56.7702C78.0177 56.7702 77.8677 56.7152 77.7277 56.6052C77.5977 56.4952 77.5177 56.3602 77.4877 56.2002C77.3177 56.2402 77.1627 56.3652 77.0227 56.5752C76.8927 56.7852 76.8127 56.9852 76.7827 57.1752C77.0527 57.4152 77.2627 57.7002 77.4127 58.0302C77.5627 58.3502 77.6377 58.6952 77.6377 59.0652C77.6377 59.6352 77.4777 60.1452 77.1577 60.5952C76.8477 61.0352 76.4377 61.3802 75.9277 61.6302C75.4277 61.8802 74.8877 62.0052 74.3077 62.0052C74.1577 62.0052 74.0077 62.0002 73.8577 61.9902C73.7077 61.9702 73.5477 61.9602 73.3777 61.9602C73.1077 61.9602 72.8827 62.0152 72.7027 62.1252C72.5327 62.2352 72.4577 62.3802 72.4777 62.5602C72.5077 62.7702 72.6877 62.9102 73.0177 62.9802C73.3477 63.0402 73.8577 63.0902 74.5477 63.1302C75.3177 63.1702 75.9877 63.2652 76.5577 63.4152C77.1277 63.5652 77.5677 63.8002 77.8777 64.1202C78.1877 64.4502 78.3427 64.9002 78.3427 65.4702C78.3427 65.8902 78.2227 66.2602 77.9827 66.5802C77.7427 66.9002 77.4227 67.1702 77.0227 67.3902C76.6327 67.6102 76.1977 67.7752 75.7177 67.8852C75.2477 68.0052 74.7727 68.0652 74.2927 68.0652ZM74.5777 67.1802C75.3377 67.1802 75.9177 67.0402 76.3177 66.7602C76.7177 66.4802 76.9177 66.1752 76.9177 65.8452C76.9177 65.5852 76.8227 65.3752 76.6327 65.2152C76.4427 65.0652 76.1727 64.9502 75.8227 64.8702C75.4727 64.7902 75.0377 64.7402 74.5177 64.7202C74.2877 64.7102 74.0327 64.6952 73.7527 64.6752C73.4727 64.6652 73.2177 64.6402 72.9877 64.6002C72.7977 64.7402 72.6477 64.9152 72.5377 65.1252C72.4377 65.3352 72.3877 65.5452 72.3877 65.7552C72.3677 66.1852 72.5577 66.5302 72.9577 66.7902C73.3577 67.0502 73.8977 67.1802 74.5777 67.1802ZM74.3677 61.1652C74.6677 61.1652 74.9177 61.0802 75.1177 60.9102C75.3277 60.7302 75.4827 60.5052 75.5827 60.2352C75.6927 59.9552 75.7477 59.6602 75.7477 59.3502C75.7477 58.9702 75.6977 58.6102 75.5977 58.2702C75.4977 57.9202 75.3427 57.6402 75.1327 57.4302C74.9227 57.2102 74.6577 57.1002 74.3377 57.1002C73.8877 57.1002 73.5377 57.2902 73.2877 57.6702C73.0477 58.0402 72.9277 58.4802 72.9277 58.9902C72.9277 59.3802 72.9827 59.7452 73.0927 60.0852C73.2127 60.4152 73.3777 60.6802 73.5877 60.8802C73.8077 61.0702 74.0677 61.1652 74.3677 61.1652ZM83.2081 64.0002V63.2052C83.4981 63.2052 83.7031 63.1452 83.8231 63.0252C83.9431 62.8952 84.0181 62.7152 84.0481 62.4852C84.0781 62.2552 84.0931 61.9952 84.0931 61.7052V58.8852C84.0931 58.7052 84.0981 58.5152 84.1081 58.3152C84.1181 58.1152 84.1331 57.9102 84.1531 57.7002C83.9831 57.7102 83.7981 57.7202 83.5981 57.7302C83.3981 57.7402 83.2331 57.7502 83.1031 57.7602V56.7852C83.5531 56.7852 83.9231 56.7652 84.2131 56.7252C84.5031 56.6752 84.7281 56.6152 84.8881 56.5452C85.0481 56.4752 85.1631 56.4102 85.2331 56.3502H85.8631C85.8831 56.4502 85.8931 56.5752 85.8931 56.7252C85.9031 56.8652 85.9131 56.9952 85.9231 57.1152C86.2531 56.8552 86.6131 56.6502 87.0031 56.5002C87.3931 56.3402 87.7731 56.2602 88.1431 56.2602C88.6131 56.2602 89.0031 56.3452 89.3131 56.5152C89.6331 56.6852 89.8831 56.9302 90.0631 57.2502C90.4131 56.9602 90.8081 56.7252 91.2481 56.5452C91.6881 56.3552 92.1131 56.2602 92.5231 56.2602C93.3531 56.2602 93.9731 56.5052 94.3831 56.9952C94.8031 57.4752 95.0081 58.2952 94.9981 59.4552V61.8552C94.9981 62.0152 94.9931 62.2102 94.9831 62.4402C94.9731 62.6602 94.9581 62.8752 94.9381 63.0852C95.0981 63.0652 95.2681 63.0552 95.4481 63.0552C95.6281 63.0452 95.7781 63.0402 95.8981 63.0402V64.0002H92.3431V63.2052C92.6031 63.2052 92.7881 63.1452 92.8981 63.0252C93.0081 62.8952 93.0731 62.7152 93.0931 62.4852C93.1231 62.2552 93.1381 61.9952 93.1381 61.7052V59.4702C93.1381 58.7502 93.0231 58.2352 92.7931 57.9252C92.5631 57.6152 92.2381 57.4602 91.8181 57.4602C91.5381 57.4502 91.2681 57.5052 91.0081 57.6252C90.7581 57.7352 90.5381 57.8702 90.3481 58.0302C90.3981 58.2202 90.4331 58.4252 90.4531 58.6452C90.4731 58.8652 90.4831 59.1002 90.4831 59.3502C90.4831 59.7702 90.4831 60.1902 90.4831 60.6102C90.4831 61.0202 90.4781 61.4352 90.4681 61.8552C90.4681 62.0152 90.4631 62.2102 90.4531 62.4402C90.4531 62.6602 90.4381 62.8752 90.4081 63.0852C90.5681 63.0652 90.7381 63.0552 90.9181 63.0552C91.0981 63.0452 91.2531 63.0402 91.3831 63.0402V64.0002H87.7831V63.2052C88.0531 63.2052 88.2431 63.1452 88.3531 63.0252C88.4731 62.8952 88.5481 62.7152 88.5781 62.4852C88.6081 62.2552 88.6231 61.9952 88.6231 61.7052V59.4402C88.6231 58.7202 88.5131 58.2102 88.2931 57.9102C88.0831 57.6002 87.7681 57.4402 87.3481 57.4302C87.0781 57.4302 86.8181 57.4902 86.5681 57.6102C86.3281 57.7302 86.1181 57.8752 85.9381 58.0452C85.9381 58.1752 85.9381 58.3052 85.9381 58.4352C85.9381 58.5552 85.9381 58.6802 85.9381 58.8102V61.8552C85.9381 62.0152 85.9331 62.2102 85.9231 62.4402C85.9231 62.6602 85.9081 62.8752 85.8781 63.0852C86.0381 63.0652 86.1981 63.0552 86.3581 63.0552C86.5281 63.0452 86.6731 63.0402 86.7931 63.0402V64.0002H83.2081ZM96.8751 63.2052C97.1651 63.2052 97.3701 63.1452 97.4901 63.0252C97.6101 62.8952 97.6851 62.7152 97.7151 62.4852C97.7451 62.2552 97.7601 61.9952 97.7601 61.7052V58.9002C97.7601 58.7302 97.7651 58.5452 97.7751 58.3452C97.7851 58.1352 97.8001 57.9202 97.8201 57.7002C97.6501 57.7102 97.4651 57.7202 97.2651 57.7302C97.0651 57.7402 96.9001 57.7502 96.7701 57.7602V56.7852C97.2201 56.7852 97.5901 56.7652 97.8801 56.7252C98.1801 56.6752 98.4101 56.6152 98.5701 56.5452C98.7401 56.4752 98.8601 56.4102 98.9301 56.3502H99.6051V61.8552C99.6051 62.0152 99.6001 62.2102 99.5901 62.4402C99.5901 62.6602 99.5751 62.8752 99.5451 63.0852C99.7051 63.0652 99.8751 63.0552 100.055 63.0552C100.245 63.0452 100.4 63.0402 100.52 63.0402V64.0002H96.8751V63.2052ZM98.6001 55.0602C98.3101 55.0602 98.0651 54.9552 97.8651 54.7452C97.6651 54.5252 97.5651 54.2602 97.5651 53.9502C97.5651 53.6402 97.6651 53.3752 97.8651 53.1552C98.0751 52.9352 98.3201 52.8252 98.6001 52.8252C98.8901 52.8252 99.1301 52.9352 99.3201 53.1552C99.5201 53.3752 99.6201 53.6402 99.6201 53.9502C99.6201 54.2602 99.5251 54.5252 99.3351 54.7452C99.1451 54.9552 98.9001 55.0602 98.6001 55.0602ZM101.548 64.0002V63.2052C101.838 63.2052 102.043 63.1452 102.163 63.0252C102.283 62.8952 102.358 62.7152 102.388 62.4852C102.418 62.2552 102.433 61.9952 102.433 61.7052V58.8852C102.433 58.7052 102.438 58.5152 102.448 58.3152C102.458 58.1152 102.473 57.9102 102.493 57.7002C102.333 57.7102 102.148 57.7202 101.938 57.7302C101.738 57.7402 101.573 57.7502 101.443 57.7602V56.7852C101.893 56.7852 102.263 56.7652 102.553 56.7252C102.843 56.6752 103.068 56.6152 103.228 56.5452C103.388 56.4752 103.503 56.4102 103.573 56.3502H104.203C104.223 56.4602 104.233 56.5502 104.233 56.6202C104.233 56.6902 104.238 56.7652 104.248 56.8452C104.258 56.9152 104.273 57.0202 104.293 57.1602C104.493 56.9902 104.723 56.8402 104.983 56.7102C105.253 56.5702 105.523 56.4602 105.793 56.3802C106.063 56.3002 106.313 56.2602 106.543 56.2602C107.443 56.2602 108.088 56.5252 108.478 57.0552C108.868 57.5852 109.063 58.4302 109.063 59.5902V61.8552C109.063 62.0152 109.058 62.2102 109.048 62.4402C109.048 62.6602 109.033 62.8752 109.003 63.0852C109.173 63.0652 109.348 63.0552 109.528 63.0552C109.708 63.0452 109.858 63.0402 109.978 63.0402V64.0002H106.333V63.2052C106.623 63.2052 106.828 63.1452 106.948 63.0252C107.078 62.8952 107.158 62.7152 107.188 62.4852C107.218 62.2552 107.233 61.9952 107.233 61.7052L107.218 59.5752C107.218 58.8552 107.108 58.3202 106.888 57.9702C106.678 57.6102 106.328 57.4302 105.838 57.4302C105.548 57.4402 105.263 57.5102 104.983 57.6402C104.703 57.7702 104.468 57.9352 104.278 58.1352C104.288 58.2552 104.293 58.3802 104.293 58.5102C104.293 58.6402 104.293 58.7702 104.293 58.9002L104.278 61.8552C104.278 62.0152 104.273 62.2102 104.263 62.4402C104.263 62.6602 104.248 62.8752 104.218 63.0852C104.378 63.0652 104.548 63.0552 104.728 63.0552C104.918 63.0452 105.073 63.0402 105.193 63.0402V64.0002H101.548ZM110.967 64.0002V63.2052C111.257 63.2052 111.462 63.1452 111.582 63.0252C111.702 62.8952 111.777 62.7152 111.807 62.4852C111.837 62.2552 111.852 61.9952 111.852 61.7052V58.8852C111.852 58.7052 111.857 58.5152 111.867 58.3152C111.877 58.1152 111.892 57.9102 111.912 57.7002C111.752 57.7102 111.567 57.7202 111.357 57.7302C111.157 57.7402 110.992 57.7502 110.862 57.7602V56.7852C111.312 56.7852 111.682 56.7652 111.972 56.7252C112.262 56.6752 112.487 56.6152 112.647 56.5452C112.807 56.4752 112.922 56.4102 112.992 56.3502H113.622C113.642 56.4602 113.652 56.5502 113.652 56.6202C113.652 56.6902 113.657 56.7652 113.667 56.8452C113.677 56.9152 113.692 57.0202 113.712 57.1602C113.912 56.9902 114.142 56.8402 114.402 56.7102C114.672 56.5702 114.942 56.4602 115.212 56.3802C115.482 56.3002 115.732 56.2602 115.962 56.2602C116.862 56.2602 117.507 56.5252 117.897 57.0552C118.287 57.5852 118.482 58.4302 118.482 59.5902V61.8552C118.482 62.0152 118.477 62.2102 118.467 62.4402C118.467 62.6602 118.452 62.8752 118.422 63.0852C118.592 63.0652 118.767 63.0552 118.947 63.0552C119.127 63.0452 119.277 63.0402 119.397 63.0402V64.0002H115.752V63.2052C116.042 63.2052 116.247 63.1452 116.367 63.0252C116.497 62.8952 116.577 62.7152 116.607 62.4852C116.637 62.2552 116.652 61.9952 116.652 61.7052L116.637 59.5752C116.637 58.8552 116.527 58.3202 116.307 57.9702C116.097 57.6102 115.747 57.4302 115.257 57.4302C114.967 57.4402 114.682 57.5102 114.402 57.6402C114.122 57.7702 113.887 57.9352 113.697 58.1352C113.707 58.2552 113.712 58.3802 113.712 58.5102C113.712 58.6402 113.712 58.7702 113.712 58.9002L113.697 61.8552C113.697 62.0152 113.692 62.2102 113.682 62.4402C113.682 62.6602 113.667 62.8752 113.637 63.0852C113.797 63.0652 113.967 63.0552 114.147 63.0552C114.337 63.0452 114.492 63.0402 114.612 63.0402V64.0002H110.967ZM124.691 64.0002C124.661 63.8502 124.641 63.7252 124.631 63.6252C124.631 63.5152 124.626 63.3902 124.616 63.2502C124.276 63.5902 123.911 63.8402 123.521 64.0002C123.141 64.1602 122.746 64.2402 122.336 64.2402C121.656 64.2402 121.131 64.0552 120.761 63.6852C120.401 63.3152 120.221 62.8602 120.221 62.3202C120.221 61.8402 120.351 61.4352 120.611 61.1052C120.871 60.7652 121.211 60.4902 121.631 60.2802C122.051 60.0602 122.516 59.8952 123.026 59.7852C123.536 59.6652 124.041 59.6002 124.541 59.5902V58.7652C124.541 58.4752 124.506 58.2102 124.436 57.9702C124.376 57.7202 124.261 57.5252 124.091 57.3852C123.921 57.2352 123.671 57.1602 123.341 57.1602C123.121 57.1702 122.896 57.2202 122.666 57.3102C122.446 57.3902 122.271 57.5202 122.141 57.7002C122.221 57.7902 122.271 57.8902 122.291 58.0002C122.311 58.1002 122.321 58.1902 122.321 58.2702C122.321 58.4502 122.251 58.6402 122.111 58.8402C121.971 59.0302 121.746 59.1202 121.436 59.1102C121.166 59.1002 120.956 59.0052 120.806 58.8252C120.666 58.6452 120.596 58.4302 120.596 58.1802C120.596 57.8002 120.731 57.4702 121.001 57.1902C121.281 56.9002 121.656 56.6752 122.126 56.5152C122.596 56.3452 123.121 56.2602 123.701 56.2602C124.561 56.2602 125.221 56.4852 125.681 56.9352C126.141 57.3852 126.366 58.1052 126.356 59.0952C126.356 59.4452 126.356 59.7652 126.356 60.0552C126.356 60.3352 126.351 60.6202 126.341 60.9102C126.341 61.1902 126.341 61.5052 126.341 61.8552C126.341 62.0052 126.336 62.1952 126.326 62.4252C126.316 62.6452 126.301 62.8652 126.281 63.0852C126.461 63.0652 126.641 63.0552 126.821 63.0552C127.011 63.0452 127.166 63.0352 127.286 63.0252V64.0002H124.691ZM124.526 60.4752C124.226 60.4952 123.931 60.5452 123.641 60.6252C123.351 60.6952 123.091 60.7952 122.861 60.9252C122.631 61.0552 122.446 61.2202 122.306 61.4202C122.176 61.6102 122.116 61.8302 122.126 62.0802C122.136 62.3902 122.236 62.6202 122.426 62.7702C122.616 62.9102 122.836 62.9802 123.086 62.9802C123.376 62.9802 123.636 62.9202 123.866 62.8002C124.106 62.6802 124.326 62.5202 124.526 62.3202C124.526 62.2202 124.526 62.1152 124.526 62.0052C124.526 61.8952 124.526 61.7852 124.526 61.6752C124.526 61.5352 124.526 61.3602 124.526 61.1502C124.526 60.9402 124.526 60.7152 124.526 60.4752ZM131.538 64.2402C131.078 64.2402 130.648 64.1802 130.248 64.0602C129.848 63.9402 129.528 63.7952 129.288 63.6252L129.333 64.1052H128.358L128.283 61.5252H129.093C129.123 61.8652 129.243 62.1752 129.453 62.4552C129.663 62.7252 129.933 62.9402 130.263 63.1002C130.603 63.2502 130.978 63.3252 131.388 63.3252C131.588 63.3252 131.778 63.2952 131.958 63.2352C132.148 63.1752 132.303 63.0802 132.423 62.9502C132.553 62.8102 132.618 62.6352 132.618 62.4252C132.618 62.2052 132.543 62.0252 132.393 61.8852C132.253 61.7452 132.053 61.6152 131.793 61.4952C131.533 61.3752 131.228 61.2502 130.878 61.1202C130.568 61.0002 130.258 60.8752 129.948 60.7452C129.638 60.6152 129.353 60.4602 129.093 60.2802C128.833 60.0902 128.623 59.8602 128.463 59.5902C128.303 59.3202 128.223 58.9902 128.223 58.6002C128.223 58.3302 128.273 58.0602 128.373 57.7902C128.473 57.5202 128.633 57.2702 128.853 57.0402C129.073 56.8002 129.353 56.6102 129.693 56.4702C130.043 56.3302 130.468 56.2602 130.968 56.2602C131.238 56.2602 131.543 56.3052 131.883 56.3952C132.223 56.4752 132.523 56.6152 132.783 56.8152L132.768 56.3352H133.743V58.9752H132.933C132.883 58.6252 132.773 58.3152 132.603 58.0452C132.433 57.7652 132.208 57.5452 131.928 57.3852C131.648 57.2252 131.313 57.1452 130.923 57.1452C130.603 57.1452 130.333 57.2252 130.113 57.3852C129.893 57.5352 129.783 57.7602 129.783 58.0602C129.783 58.3102 129.868 58.5152 130.038 58.6752C130.208 58.8352 130.438 58.9702 130.728 59.0802C131.018 59.1902 131.333 59.3102 131.673 59.4402C132.143 59.6002 132.568 59.7902 132.948 60.0102C133.338 60.2302 133.648 60.4952 133.878 60.8052C134.108 61.1152 134.223 61.5002 134.223 61.9602C134.223 62.4802 134.093 62.9102 133.833 63.2502C133.573 63.5802 133.238 63.8302 132.828 64.0002C132.418 64.1602 131.988 64.2402 131.538 64.2402ZM142.897 64.2402C142.177 64.2402 141.537 64.0802 140.977 63.7602C140.417 63.4302 139.982 62.9702 139.672 62.3802C139.362 61.7802 139.207 61.0752 139.207 60.2652C139.207 59.5652 139.362 58.9102 139.672 58.3002C139.982 57.6902 140.417 57.2002 140.977 56.8302C141.547 56.4502 142.207 56.2602 142.957 56.2602C143.377 56.2602 143.782 56.3202 144.172 56.4402C144.562 56.5602 144.912 56.7602 145.222 57.0402C145.532 57.3202 145.777 57.6902 145.957 58.1502C146.147 58.6102 146.237 59.1702 146.227 59.8302L141.187 59.9202C141.187 60.5402 141.257 61.0902 141.397 61.5702C141.547 62.0402 141.787 62.4152 142.117 62.6952C142.447 62.9652 142.882 63.1002 143.422 63.1002C143.662 63.1002 143.917 63.0602 144.187 62.9802C144.467 62.8902 144.742 62.7602 145.012 62.5902C145.282 62.4102 145.522 62.1902 145.732 61.9302L146.302 62.4552C145.972 62.9352 145.607 63.3052 145.207 63.5652C144.807 63.8252 144.407 64.0002 144.007 64.0902C143.607 64.1902 143.237 64.2402 142.897 64.2402ZM141.262 59.0202H144.382C144.372 58.6202 144.312 58.2852 144.202 58.0152C144.102 57.7352 143.952 57.5252 143.752 57.3852C143.552 57.2352 143.307 57.1602 143.017 57.1602C142.527 57.1602 142.132 57.3252 141.832 57.6552C141.542 57.9752 141.352 58.4302 141.262 59.0202ZM147.398 63.2052C147.688 63.2052 147.893 63.1452 148.013 63.0252C148.133 62.8952 148.208 62.7152 148.238 62.4852C148.268 62.2552 148.283 61.9952 148.283 61.7052V58.8852C148.283 58.7052 148.288 58.5152 148.298 58.3152C148.308 58.1152 148.323 57.9102 148.343 57.7002C148.173 57.7102 147.988 57.7202 147.788 57.7302C147.588 57.7302 147.423 57.7352 147.293 57.7452V56.7852H147.848C148.248 56.7852 148.583 56.7402 148.853 56.6502C149.123 56.5502 149.313 56.4502 149.423 56.3502H150.053C150.073 56.4702 150.088 56.6602 150.098 56.9202C150.108 57.1802 150.113 57.4402 150.113 57.7002C150.343 57.4002 150.583 57.1452 150.833 56.9352C151.083 56.7152 151.338 56.5502 151.598 56.4402C151.868 56.3202 152.143 56.2602 152.423 56.2602C152.743 56.2602 153.023 56.3502 153.263 56.5302C153.513 56.7102 153.638 57.0002 153.638 57.4002C153.638 57.5302 153.603 57.6702 153.533 57.8202C153.473 57.9702 153.373 58.0952 153.233 58.1952C153.103 58.2952 152.923 58.3452 152.693 58.3452C152.483 58.3452 152.283 58.2802 152.093 58.1502C151.913 58.0102 151.818 57.7902 151.808 57.4902C151.598 57.4802 151.378 57.5552 151.148 57.7152C150.928 57.8752 150.728 58.0702 150.548 58.3002C150.368 58.5302 150.228 58.7652 150.128 59.0052L150.143 61.8552C150.143 62.0152 150.138 62.2102 150.128 62.4402C150.118 62.6602 150.103 62.8752 150.083 63.0852C150.243 63.0652 150.413 63.0552 150.593 63.0552C150.773 63.0452 150.923 63.0402 151.043 63.0402V64.0002H147.398V63.2052Z" fill="#F6E8B1"/>
<path d="M82.2205 75.6802V76.2202H81.2605V84.0202H82.2205V84.5602H80.6005V75.6802H82.2205ZM84.6786 75.9202V79.1002H84.6886L88.0586 75.9202H89.0886L85.5186 79.1302L89.2886 83.0002H88.2286L84.6886 79.2302H84.6786V83.0002H83.9586V75.9202H84.6786ZM94.5451 80.6602C94.5451 82.0702 93.5051 83.1202 92.0451 83.1202C90.5951 83.1202 89.5551 82.0702 89.5551 80.6602C89.5551 79.2502 90.5951 78.2002 92.0451 78.2002C93.5051 78.2002 94.5451 79.2502 94.5451 80.6602ZM93.8251 80.6602C93.8251 79.6102 93.1351 78.7702 92.0451 78.7702C90.9651 78.7702 90.2751 79.6102 90.2751 80.6602C90.2751 81.7102 90.9651 82.5402 92.0451 82.5402C93.1351 82.5402 93.8251 81.7102 93.8251 80.6602ZM96.0084 79.3502C96.0084 79.1002 95.9984 78.6402 95.9684 78.3202H96.6184C96.6384 78.5702 96.6584 78.9202 96.6584 79.1202H96.6784C96.9384 78.5802 97.5184 78.2002 98.1784 78.2002C98.3484 78.2002 98.4884 78.2102 98.6284 78.2502L98.5384 78.8902C98.4584 78.8602 98.2384 78.8302 98.0584 78.8302C97.3384 78.8302 96.6884 79.3502 96.6884 80.6002V83.0002H96.0084V79.3502ZM102.445 80.1302V79.9802C102.445 79.1702 102.005 78.7702 101.195 78.7702C100.645 78.7702 100.135 78.9902 99.8047 79.3202L99.4247 78.8702C99.8047 78.4902 100.465 78.2002 101.265 78.2002C102.275 78.2002 103.085 78.7602 103.085 79.9002V81.9502C103.085 82.3102 103.115 82.7402 103.165 83.0002H102.555C102.515 82.7702 102.485 82.4902 102.485 82.2402H102.465C102.035 82.8602 101.515 83.1202 100.765 83.1202C100.055 83.1202 99.1447 82.7402 99.1447 81.7002C99.1447 80.2602 100.735 80.1302 102.445 80.1302ZM102.445 80.6602H102.245C101.135 80.6602 99.8447 80.7802 99.8447 81.6702C99.8447 82.3402 100.415 82.5602 100.945 82.5602C101.905 82.5602 102.445 81.8402 102.445 81.0102V80.6602ZM104.797 78.3202H105.447C105.467 78.5702 105.487 78.9202 105.487 79.1202H105.507C105.767 78.5802 106.447 78.2002 107.107 78.2002C108.297 78.2002 108.887 78.9702 108.887 80.1302V83.0002H108.207V80.4102C108.207 79.4302 107.917 78.7702 106.937 78.7702C106.217 78.7702 105.517 79.3502 105.517 80.6002V83.0002H104.837V79.3502C104.837 79.1002 104.827 78.6402 104.797 78.3202ZM111.027 80.3002H114.217C114.177 79.4202 113.637 78.7702 112.667 78.7702C111.757 78.7702 111.087 79.5002 111.027 80.3002ZM114.907 80.5202C114.907 80.6102 114.907 80.7202 114.897 80.8402H111.017C111.037 81.7802 111.767 82.5402 112.727 82.5402C113.427 82.5402 113.967 82.1502 114.227 81.7302L114.737 82.1302C114.187 82.8302 113.497 83.1202 112.727 83.1202C111.337 83.1202 110.307 82.0702 110.307 80.6602C110.307 79.2502 111.337 78.2002 112.667 78.2002C114.137 78.2002 114.907 79.2402 114.907 80.5202ZM116.33 78.3202H116.98C117 78.5702 117.02 78.9202 117.02 79.1202H117.04C117.3 78.5802 117.98 78.2002 118.64 78.2002C119.83 78.2002 120.42 78.9702 120.42 80.1302V83.0002H119.74V80.4102C119.74 79.4302 119.45 78.7702 118.47 78.7702C117.75 78.7702 117.05 79.3502 117.05 80.6002V83.0002H116.37V79.3502C116.37 79.1002 116.36 78.6402 116.33 78.3202ZM128.82 82.3602V83.0002H124.29V82.2502L127.19 79.3202C127.62 78.8802 128.04 78.3502 128.04 77.7002C128.04 76.8802 127.4 76.3502 126.64 76.3502C125.88 76.3502 125.33 76.8802 125.18 77.6102L124.47 77.4702C124.67 76.4702 125.53 75.7402 126.64 75.7402C127.78 75.7402 128.77 76.4002 128.77 77.6902C128.77 78.6002 128.24 79.2102 127.62 79.8302L125.07 82.3602H128.82ZM131.621 78.8002C131.621 79.0802 131.401 79.3402 131.081 79.3402C130.761 79.3402 130.541 79.0802 130.541 78.8002C130.541 78.5202 130.761 78.2602 131.081 78.2602C131.401 78.2602 131.621 78.5202 131.621 78.8002ZM131.621 82.5202C131.621 82.8002 131.401 83.0602 131.081 83.0602C130.761 83.0602 130.541 82.8002 130.541 82.5202C130.541 82.2402 130.761 81.9802 131.081 81.9802C131.401 81.9802 131.621 82.2402 131.621 82.5202ZM136.159 75.9202V83.0002H135.439V76.8102L134.159 77.9002L133.719 77.4002L135.519 75.9202H136.159ZM143.13 75.9202V76.5602H140.18L140.13 78.7502C140.43 78.6402 140.79 78.5902 141.11 78.5902C142.44 78.5902 143.41 79.4902 143.41 80.8102C143.41 82.1802 142.46 83.1802 141.06 83.1802C140.04 83.1802 139.33 82.6702 138.94 81.8902L139.59 81.6002C139.84 82.1802 140.4 82.5602 141.02 82.5602C141.98 82.5602 142.68 81.8402 142.68 80.8802C142.68 79.8302 141.93 79.1802 140.92 79.1802C140.41 79.1802 139.9 79.3302 139.45 79.5702L139.52 75.9202H143.13ZM149.221 82.3602V83.0002H144.691V82.2502L147.591 79.3202C148.021 78.8802 148.441 78.3502 148.441 77.7002C148.441 76.8802 147.801 76.3502 147.041 76.3502C146.281 76.3502 145.731 76.8802 145.581 77.6102L144.871 77.4702C145.071 76.4702 145.931 75.7402 147.041 75.7402C148.181 75.7402 149.171 76.4002 149.171 77.6902C149.171 78.6002 148.641 79.2102 148.021 79.8302L145.471 82.3602H149.221ZM150.781 84.5602V84.0202H151.741V76.2202H150.781V75.6802H152.401V84.5602H150.781Z" fill="#F6E8B1"/>
<path opacity="0.2" d="M33.5757 -2.92205e-06C40.3872 -2.32656e-06 46.2905 1.28662 51.2857 3.85986C56.2808 6.48356 60.1659 9.99023 62.9409 14.3799C65.6655 18.7695 67.0278 23.5881 67.0278 28.8354L67.0278 74.8511C67.0278 80.1489 65.6655 84.9674 62.9409 89.3066C60.1659 93.6963 56.2808 97.1777 51.2856 99.751C46.2905 102.375 40.3872 103.687 33.5757 103.687C26.7137 103.687 20.7852 102.375 15.79 99.751C10.7949 97.1777 6.93506 93.6963 4.21045 89.3066C1.43539 84.9674 0.0478536 80.1489 0.0478541 74.8511L0.0478581 28.8354C0.0478586 23.588 1.43539 18.7695 4.21046 14.3799C6.93507 9.99023 10.7949 6.48356 15.79 3.85986C20.7852 1.28662 26.7137 -3.52194e-06 33.5757 -2.92205e-06ZM46.1392 77.5L34.6353 77.5L34.6353 87.2632L39.6304 87.2632L36.6787 94.8315L41.4468 97.0264L46.1392 87.2632L46.1392 77.5ZM32.1377 77.5L20.7095 77.5L20.7095 87.2632L25.6289 87.2632L22.6772 94.8315L27.521 97.0264L32.1377 87.2632L32.1377 77.5Z" fill="#F6E8B1"/>
</svg>
